<svg width="28" height="26" viewBox="0 0 28 26" fill="none" xmlns="http://www.w3.org/2000/svg">
<path d="M15.75 2.28702C15.75 1.4405 14.968 0.756592 14 0.756592C13.032 0.756592 12.25 1.4405 12.25 2.28702V13.8943L8.23594 10.3839C7.55234 9.78611 6.44219 9.78611 5.75859 10.3839C5.075 10.9818 5.075 11.9526 5.75859 12.5504L12.7586 18.6721C13.4422 19.27 14.5523 19.27 15.2359 18.6721L22.2359 12.5504C22.9195 11.9526 22.9195 10.9818 22.2359 10.3839C21.5523 9.78611 20.4422 9.78611 19.7586 10.3839L15.75 13.8943V2.28702ZM3.5 17.5913C1.56953 17.5913 0 18.9639 0 20.6521V22.1826C0 23.8708 1.56953 25.2434 3.5 25.2434H24.5C26.4305 25.2434 28 23.8708 28 22.1826V20.6521C28 18.9639 26.4305 17.5913 24.5 17.5913H18.9492L16.4719 19.7578C15.1047 20.9534 12.8898 20.9534 11.5227 19.7578L9.05078 17.5913H3.5ZM23.625 20.2695C23.9731 20.2695 24.3069 20.3905 24.5531 20.6057C24.7992 20.821 24.9375 21.1129 24.9375 21.4174C24.9375 21.7218 24.7992 22.0137 24.5531 22.229C24.3069 22.4442 23.9731 22.5652 23.625 22.5652C23.2769 22.5652 22.9431 22.4442 22.6969 22.229C22.4508 22.0137 22.3125 21.7218 22.3125 21.4174C22.3125 21.1129 22.4508 20.821 22.6969 20.6057C22.9431 20.3905 23.2769 20.2695 23.625 20.2695Z" fill="#F8F8F8"/>
</svg>
